<svg width="100%" height="100%" viewBox="0 0 800 800"
    xmlns="http://www.w3.org/2000/svg" fill-rule="evenodd" clip-rule="evenodd" stroke-linejoin="round" stroke-miterlimit="2">
    <g transform="matrix(1.33675,0,0,1.18932,-103.398,-38.2168)">
        <path d="M608.488,161.835v413.252c0,29.819-21.53,54.028-48.06,54.028H192.747c-26.53,0-48.07-24.209-48.07-54.028V161.835c0-29.819,21.54-54.028,48.07-54.028h367.672c26.53,0,48.06,24.209,48.06,54.028Z" fill="#424547"/>
    </g>
    <g transform="matrix(5.551e-17,-0.906547,0.588828,3.60553e-17,-5.36806,794.688)">
        <rect x="176.888" y="346.788" width="77.253" height="235.58" fill="#fff"/>
    </g>
    <g transform="matrix(5.551e-17,-0.906547,1.3975,8.55721e-17,-286.172,400.259)">
        <rect x="176.888" y="346.788" width="77.253" height="235.58" fill="#fff"/>
    </g>
    <g transform="matrix(5.551e-17,-0.906547,0.906547,5.551e-17,-115.916,531.735)">
        <rect x="176.888" y="346.788" width="77.253" height="235.58" fill="#fff"/>
    </g>
    <g transform="matrix(5.551e-17,-0.906547,1.86985,1.14495e-16,-449.979,663.212)">
        <rect x="176.888" y="346.788" width="77.253" height="235.58" fill="#fff"/>
    </g>
</svg>
